<?xml version="1.0" encoding="iso-8859-1"?>
<!-- Uploaded to: SVG Repo, www.svgrepo.com, Generator: SVG Repo Mixer Tools -->
<!DOCTYPE svg PUBLIC "-//W3C//DTD SVG 1.1//EN" "http://www.w3.org/Graphics/SVG/1.1/DTD/svg11.dtd">
<svg height="800px" width="800px" version="1.1" id="Capa_1" xmlns="http://www.w3.org/2000/svg" xmlns:xlink="http://www.w3.org/1999/xlink" 
	 viewBox="0 0 420.004 420.004" xml:space="preserve">
<g>
	<path style="fill:#FFAC52;" d="M224.139,210l40.776,40.776c36.787-33.665,83.793-54.3,134.218-58.917
		c-3.965-41.654-21.431-79.428-47.967-108.886L224.139,210z"/>
	<path style="fill:#FFAC52;" d="M195.854,210l-40.768-40.768c-36.785,33.663-83.79,54.296-134.215,58.912
		c3.964,41.652,21.426,79.424,47.958,108.881L195.854,210z"/>
	<path style="fill:#FFAC52;" d="M264.928,279.074c-30.139,33.221-48.696,75.509-53.062,120.904
		c48.061-0.466,91.908-18.858,125.16-48.806L264.928,279.074z"/>
	<path style="fill:#FFAC52;" d="M169.228,155.089l40.768,40.768L337.023,68.831c-29.458-26.53-67.229-43.992-108.88-47.957
		C223.526,71.298,202.893,118.304,169.228,155.089z"/>
	<path style="fill:#FFAC52;" d="M250.772,264.918l-40.776-40.776L82.971,351.168c29.459,26.535,67.233,43.999,108.887,47.962
		C196.476,348.707,217.108,301.703,250.772,264.918z"/>
	<path style="fill:#FFAC52;" d="M155.073,140.934c30.139-33.223,48.697-75.512,53.063-120.907
		c-48.062,0.464-91.91,18.857-125.162,48.808L155.073,140.934z"/>
	<path style="fill:#FFAC52;" d="M68.831,82.977c-29.949,33.252-48.341,77.099-48.808,125.159
		c45.396-4.364,87.685-22.921,120.907-53.06L68.831,82.977z"/>
	<path style="fill:#FFAC52;" d="M351.169,337.03c29.953-33.252,48.347-77.101,48.812-125.164
		c-45.396,4.365-87.687,22.924-120.91,53.065L351.169,337.03z"/>
	<path d="M209.997,0.003C94.204,0.003,0,94.21,0,210.005c0,115.793,94.204,209.997,209.997,209.997
		c115.799,0,210.008-94.204,210.008-209.997C420.004,94.21,325.795,0.003,209.997,0.003z M20.024,208.137
		c0.466-48.061,18.858-91.907,48.808-125.159l72.099,72.099C107.709,185.215,65.42,203.772,20.024,208.137z M208.136,20.027
		c-4.366,45.395-22.924,87.684-53.063,120.907L82.974,68.835C116.226,38.884,160.074,20.491,208.136,20.027z M399.981,211.866
		c-0.465,48.063-18.858,91.911-48.812,125.164l-72.099-72.098C312.294,234.79,354.585,216.232,399.981,211.866z M264.915,250.776
		L224.139,210L351.166,82.973c26.536,29.458,44.002,67.232,47.967,108.886C348.708,196.476,301.702,217.11,264.915,250.776z
		 M155.086,169.232L195.854,210L68.829,337.025c-26.532-29.458-43.994-67.23-47.958-108.881
		C71.296,223.528,118.301,202.895,155.086,169.232z M209.996,195.858l-40.768-40.768c33.664-36.786,54.297-83.791,58.915-134.215
		c41.651,3.965,79.422,21.427,108.88,47.957L209.996,195.858z M209.996,224.142l40.776,40.776
		c-33.664,36.785-54.297,83.789-58.914,134.212c-41.654-3.964-79.429-21.428-108.887-47.962L209.996,224.142z M264.928,279.074
		l72.098,72.098c-33.252,29.948-77.099,48.339-125.16,48.806C216.232,354.583,234.789,312.295,264.928,279.074z"/>
</g>
</svg>